PathFileType	4	(X/Y/Z)	/Users/visionmauri/2_8_1_f_Sports2D/2_8_1_f_Sports2D_px_person00.trc
DataRate	CameraRate	NumFrames	NumMarkers	Units	OrigDataRate	OrigDataStartFrame	OrigNumFrames
30.0	30.0	9	22	m	30.0	262	350
Frame#	Time	Hip			RHip			RKnee			RAnkle			RBigToe			RSmallToe			RHeel			LHip			LKnee			LAnkle			LBigToe			LSmallToe			LHeel			Neck			Head			Nose			RShoulder			RElbow			RWrist			LShoulder			LElbow			LWrist			
		X1	Y1	Z1	X2	Y2	Z2	X3	Y3	Z3	X4	Y4	Z4	X5	Y5	Z5	X6	Y6	Z6	X7	Y7	Z7	X8	Y8	Z8	X9	Y9	Z9	X10	Y10	Z10	X11	Y11	Z11	X12	Y12	Z12	X13	Y13	Z13	X14	Y14	Z14	X15	Y15	Z15	X16	Y16	Z16	X17	Y17	Z17	X18	Y18	Z18	X19	Y19	Z19	X20	Y20	Z20	X21	Y21	Z21	X22	Y22	Z22
262	8.758357211079273	576.5489353993202	779.4040914580878	0.0	511.56009321736565	798.6383187140551	0.0	489.8449512170272	1055.4268960624402	0.0	530.2719864621645	1205.236620679428	0.0	525.9546284513806	1322.3633702716236	0.0	489.2190704768155	1302.5444920275681	0.0	549.4430643178171	1218.076007541798	0.0	636.0914912215177	798.678439873367	0.0	639.8910686176716	1028.5642707809943	0.0	642.1477059291432	1277.5991076249495	0.0	635.5206604999316	1384.8779620911039	0.0	673.2045822943522	1374.0813934156627	0.0	622.4131744916086	1305.6503806019555	0.0	592.62639478909	409.8452717505678	0.0	624.8572925648433	245.7341135433354	0.0	630.6722900833677	365.7553452760909	0.0	461.5373121364725	444.58314438550116	0.0	398.5787121640333	612.5055588473747	0.0	356.97051036783967	749.5355660818176	0.0	708.3994225977507	451.98417883989185	0.0	745.6510744843735	617.3957327663144	0.0	782.608044968428	748.448129144996	0.0
263	8.79178605539637	576.1380364461284	778.4342600832841	0.0	510.73004236067106	795.2381876982415	0.0	485.36642047270675	1057.3152481655875	0.0	531.6590890030019	1205.1464668104734	0.0	522.8262188244432	1325.2296097651447	0.0	488.3770703043809	1303.7210243328677	0.0	551.1481939768546	1217.1029616202939	0.0	635.9743898078978	795.3846095744677	0.0	640.1656424693056	1030.4285522813764	0.0	642.5779168575616	1275.5155823756177	0.0	636.3668129122683	1388.4042983626377	0.0	675.2185776272615	1379.3749821263636	0.0	621.4441695358535	1306.4128991870773	0.0	592.8982724210837	408.02149625984936	0.0	625.1163462929976	241.72553346617696	0.0	631.092787718248	364.8490514966564	0.0	461.6393809842418	441.74954443543254	0.0	398.85329054997493	609.821385413432	0.0	356.8577276574198	749.5912107310603	0.0	707.815327307689	450.3732902544426	0.0	746.4107615848784	613.4706506771852	0.0	784.0254035409112	746.6199687905776	0.0
264	8.825214899713467	574.9991898021657	776.9974584782962	0.0	509.8911732551827	791.5528633938791	0.0	482.5113563408547	1056.5623936127456	0.0	533.463628928855	1209.5947411059103	0.0	518.3353593657196	1330.766483924198	0.0	486.2857739024057	1308.458573054338	0.0	552.5837035576155	1224.2108001600354	0.0	637.1404370375527	791.6096040402604	0.0	641.3408367349044	1034.1246203274866	0.0	642.5477336056043	1276.0812965401449	0.0	637.6669102350328	1393.6522877028628	0.0	678.0507726264992	1383.313323096329	0.0	621.11759405523	1307.355026425704	0.0	592.0202923013613	406.14197375753383	0.0	625.5458290802202	236.90468369085227	0.0	630.24285908829	363.95290446025837	0.0	461.23995204180716	438.95968459741056	0.0	398.48915868634043	607.6949143744553	0.0	356.1768738251993	749.3977031666735	0.0	706.7153109385725	448.57655365492303	0.0	746.7767062675008	609.4436400356196	0.0	785.3713886959293	745.193366654933	0.0
265	8.858643744030564	573.0618316906525	775.6265813385045	0.0	508.05040934342793	789.6863377614474	0.0	482.37179251950795	1055.3484724132345	0.0	534.399268304605	1220.7929743195764	0.0	514.6100837575925	1340.5471202913473	0.0	483.11569155277954	1318.66776117104	0.0	554.2281775059046	1240.44516829294	0.0	638.4548657750084	789.664103044774	0.0	643.0856487290681	1038.5122095443105	0.0	641.6836679778164	1278.0455284929035	0.0	638.5620219293088	1398.08347499985	0.0	679.5989955088036	1384.2416873033476	0.0	620.9209733556185	1308.8646212855672	0.0	591.0198780587378	402.98719731751584	0.0	625.1916387060312	233.6852118545603	0.0	628.996342906247	361.1245436168494	0.0	460.65711452505485	437.01274772559276	0.0	398.17640748640736	606.9369670710319	0.0	355.5589256020283	748.9473608845458	0.0	706.0867452851285	445.8472442633632	0.0	747.1599831285197	606.588078837358	0.0	786.0249669625847	745.2279673238078	0.0
266	8.89207258834766	571.3274310465766	774.397897956605	0.0	505.96712691770125	788.6745622080064	0.0	485.0204412288828	1054.727694868736	0.0	531.7621619389977	1237.4176945042236	0.0	511.5876466804735	1353.4504857364984	0.0	478.69005140546057	1333.5048525504249	0.0	552.3673588838503	1263.012677515279	0.0	638.8012855370952	788.5742435634561	0.0	643.8508138165191	1040.7359020230265	0.0	640.2053759781733	1280.5967469185246	0.0	638.6839595919263	1400.0423273618526	0.0	679.4759974235265	1384.5046263841791	0.0	619.6510520573216	1312.5735966531429	0.0	590.3601211129543	398.91576952628844	0.0	623.4468487697324	231.2208682684718	0.0	627.9176633637605	357.1164584237614	0.0	460.0129800307715	435.23398789230833	0.0	397.7853074517768	606.4670299122574	0.0	354.9011790868393	748.618185682048	0.0	706.0957174358684	442.0578301595938	0.0	747.8157516710322	604.1749598704215	0.0	785.8621388433368	746.0458767005714	0.0
267	8.925501432664756	570.3137292767365	773.3444540295255	0.0	504.3466289908994	787.1204916922258	0.0	488.75875159186836	1054.8004001235056	0.0	525.918518251259	1256.9992739437728	0.0	507.219490173942	1367.8621843092276	0.0	472.6015503490013	1350.5775641429766	0.0	545.9785115377045	1287.8061467767782	0.0	638.2466021333446	787.0091380231734	0.0	642.8128130621699	1041.5961735459216	0.0	638.7230733052627	1283.9505091314932	0.0	638.4703697130544	1400.5134061067702	0.0	678.503536274023	1386.660326706252	0.0	618.2237212313237	1318.041608692744	0.0	589.8554249072672	395.2777119612739	0.0	620.8250269711478	227.99953191873396	0.0	626.8268698583844	353.9997183633498	0.0	458.4063945429949	433.1509164174362	0.0	396.2943457769563	605.8044428448111	0.0	353.39357656735314	748.3162044271992	0.0	706.7560467380522	438.6636825263032	0.0	748.5492074594902	601.6572849967744	0.0	785.2485536067577	746.2594994849778	0.0
268	8.958930276981853	569.3723379405454	772.5781841780293	0.0	502.4872790955356	785.90577931729	0.0	491.27129261625254	1055.4683743662363	0.0	519.6638903588339	1277.1743710736853	0.0	500.1474539646387	1383.1866966742828	0.0	465.2793233185176	1367.2769030710535	0.0	538.7635117164342	1310.7064596427279	0.0	637.2306161981569	786.1494889105525	0.0	640.6513934799644	1043.4583990032188	0.0	638.0436203961776	1288.4456438794261	0.0	638.3173218933691	1401.3163215074821	0.0	677.6252662364082	1390.164008190568	0.0	618.4344687931066	1323.799925692858	0.0	589.2582623045347	392.62446887841026	0.0	618.4129490801267	224.34480103364862	0.0	625.5523177925501	351.7023137969806	0.0	455.666265957668	431.65075299216176	0.0	393.7468154630639	605.1433401428415	0.0	351.4748684690429	747.8622521786327	0.0	707.6022337206342	436.97792544173035	0.0	748.9717758318027	599.8867387431723	0.0	784.871772246726	746.0492726551756	0.0
269	8.99235912129895	567.8703975149078	772.370417098072	0.0	500.02048588595335	786.3444297209722	0.0	492.09565802884913	1056.0443704011116	0.0	514.2575347771534	1295.7372878437443	0.0	491.00855313041706	1397.6592369510804	0.0	457.7066162586654	1381.5311461356464	0.0	533.3770250693773	1330.3060187981669	0.0	635.9602539453605	787.358368989134	0.0	638.8994501258292	1045.6232061021683	0.0	638.7451167032906	1293.6782757844323	0.0	638.131642839328	1402.88312544894	0.0	677.0813058594835	1393.1377643190858	0.0	620.2721512074372	1329.8443059802237	0.0	588.1934579222196	390.5770714498497	0.0	616.6629560302459	221.46500766454437	0.0	624.0051378734535	349.48721264919334	0.0	453.4774023327083	430.8803603035837	0.0	391.79243811705993	604.363391833576	0.0	350.6713082111167	747.2952032726486	0.0	707.8500300428295	436.1667054798353	0.0	748.9562633467306	599.4311802282853	0.0	784.9545425411088	745.8351011862142	0.0
270	9.025787965616045	565.8466912587769	773.3972983422514	0.0	497.39240813481365	788.5229772567559	0.0	492.12629219441254	1055.8701284938986	0.0	509.50658303042763	1310.8589960254826	0.0	481.25177049217507	1408.0431086398748	0.0	450.1565955220065	1392.7216267863002	0.0	529.4664445396933	1347.6566281189894	0.0	634.4423651910396	789.9824409154527	0.0	638.7713018745571	1046.3724824587364	0.0	640.2111650235189	1298.0951048648149	0.0	637.5544356562372	1404.4299607173477	0.0	676.5486879567097	1395.2021704670344	0.0	621.6890703456262	1336.3883424157898	0.0	586.2622505926419	388.98935177788763	0.0	614.931587418509	220.25212650580417	0.0	620.6757245533065	348.16751257638464	0.0	452.78231648710954	430.1989267067549	0.0	390.91251349020376	603.7845091068318	0.0	351.16023711335197	746.8115758052688	0.0	707.1048156749301	435.0131405318491	0.0	748.71293455901	599.7480065307021	0.0	785.0594636183212	745.1643975139386	0.0
